<?xml version="1.0" encoding="UTF-8"?>
<svg xmlns="http://www.w3.org/2000/svg" xmlns:xlink="http://www.w3.org/1999/xlink" viewBox="0 0 50 50" width="50px" height="50px">
<g id="surface47793409">
<path style=" stroke:none;fill-rule:nonzero;fill:rgb(100%,100%,100%);fill-opacity:1;" d="M 24.996094 6.003906 C 24.644531 6.003906 24.292969 6.121094 24.003906 6.363281 L 7.179688 20.417969 C 6.96875 20.597656 6.9375 20.914062 7.113281 21.125 C 7.292969 21.335938 7.609375 21.367188 7.820312 21.1875 L 10 19.367188 L 10 36 C 10 37.65625 11.34375 39 13 39 L 37 39 C 38.65625 39 40 37.65625 40 36 L 40 19.367188 L 42.179688 21.191406 C 42.273438 21.265625 42.386719 21.304688 42.5 21.304688 C 42.644531 21.304688 42.785156 21.246094 42.882812 21.128906 C 43.0625 20.914062 43.03125 20.597656 42.820312 20.421875 L 40 18.066406 L 40 11 C 40 10.449219 39.550781 10 39 10 L 38 10 C 37.449219 10 37 10.449219 37 11 L 37 15.558594 L 25.996094 6.363281 C 25.707031 6.121094 25.351562 6 25 6 Z M 24.996094 7.003906 C 25.125 7.003906 25.253906 7.046875 25.359375 7.136719 L 39 18.535156 L 39 36 C 39 37.105469 38.105469 38 37 38 L 30 38 L 30 26.667969 C 30 25.746094 29.253906 25 28.332031 25 L 21.667969 25 C 20.746094 25 20 25.746094 20 26.667969 L 20 38 L 13 38 C 11.894531 38 11 37.105469 11 36 L 11 18.53125 L 24.636719 7.132812 C 24.742188 7.046875 24.871094 7.003906 24.996094 7.003906 Z M 24.996094 7.003906 "/>
</g>
</svg>
